# xmcd CD database file
#
# Track frame offsets:
#	150
#	15781
#	30965
#	46447
#	54467
#	76058
#	98160
#	108085
#	127202
#	138575
#	150426
#	173151
#	186186
#	208067
#	220984
#	233714
#
# Disc length: 3366 seconds
#
# Revision: 0
# Processed by: cddbd v1.5.2PL0 Copyright (c) Steve Scherf et al.
# Submitted via: jetAudio 7
#
DISCID=c90d2410
DTITLE=The Potlikkers - Live at the Coliseum
DYEAR=1900
DGENRE=Country
TTITLE0=Big River
TTITLE1=Bile 'em Cabbage Down
TTITLE2=Crawdaddy
TTITLE3=Cripple Creek
TTITLE4=Folsom Prison
TTITLE5=Freight Train
TTITLE6=Jerico
TTITLE7=John Henry
TTITLE8=My Home Across The Blue Ridge
TTITLE9=Old Joe Clark
TTITLE10=Rain and Snow
TTITLE11=Rollin' In My Sweet Baby's Arms
TTITLE12=Tennessee Whiskey
TTITLE13=Watermelon
TTITLE14=Will the Circle Be Unbroken
TTITLE15=Working Man Blues
EXTD=
EXTT0=
EXTT1=
EXTT2=
EXTT3=
EXTT4=
EXTT5=
EXTT6=
EXTT7=
EXTT8=
EXTT9=
EXTT10=
EXTT11=
EXTT12=
EXTT13=
EXTT14=
EXTT15=
PLAYORDER=
